<svg width="20" height="20" viewBox="0 0 20 20" fill="none" xmlns="http://www.w3.org/2000/svg">
<g id="radix-icons:cross-1">
<path id="Vector" fill-rule="evenodd" clip-rule="evenodd" d="M17.4728 4.14122C17.5348 4.07923 17.584 4.00565 17.6175 3.92466C17.6511 3.84368 17.6684 3.75688 17.6684 3.66922C17.6684 3.58156 17.6511 3.49476 17.6175 3.41377C17.584 3.33279 17.5348 3.2592 17.4728 3.19722C17.4109 3.13523 17.3373 3.08607 17.2563 3.05252C17.1753 3.01897 17.0885 3.00171 17.0008 3.00171C16.9132 3.00171 16.8264 3.01897 16.7454 3.05252C16.6644 3.08607 16.5908 3.13523 16.5288 3.19722L10.3342 9.39322L4.13951 3.19722C4.07753 3.13523 4.00394 3.08607 3.92295 3.05252C3.84197 3.01897 3.75517 3.00171 3.66751 3.00171C3.57985 3.00171 3.49305 3.01897 3.41206 3.05252C3.33108 3.08607 3.25749 3.13523 3.19551 3.19722C3.13352 3.2592 3.08436 3.33279 3.05081 3.41377C3.01727 3.49476 3 3.58156 3 3.66922C3 3.75688 3.01727 3.84368 3.05081 3.92466C3.08436 4.00565 3.13352 4.07923 3.19551 4.14122L9.39151 10.3359L3.19551 16.5306C3.07033 16.6557 3 16.8255 3 17.0026C3 17.1796 3.07033 17.3494 3.19551 17.4746C3.32069 17.5997 3.49047 17.6701 3.66751 17.6701C3.84454 17.6701 4.01433 17.5997 4.13951 17.4746L10.3342 11.2786L16.5288 17.4746C16.654 17.5997 16.8238 17.6701 17.0008 17.6701C17.1779 17.6701 17.3477 17.5997 17.4728 17.4746C17.598 17.3494 17.6684 17.1796 17.6684 17.0026C17.6684 16.8255 17.598 16.6557 17.4728 16.5306L11.2768 10.3359L17.4728 4.14122Z" fill="#BABABA"/>
</g>
</svg>
